<svg xmlns="http://www.w3.org/2000/svg" xmlns:xlink="http://www.w3.org/1999/xlink" width="130" zoomAndPan="magnify" viewBox="0 0 97.5 98.249997" height="131" preserveAspectRatio="xMidYMid meet" version="1.0"><defs><g/><clipPath id="6655ca664b"><path d="M 0.121094 0 L 96.136719 0 L 96.136719 96.761719 L 0.121094 96.761719 Z M 0.121094 0 " clip-rule="nonzero"/></clipPath></defs><g clip-path="url(#6655ca664b)"><path fill="#35bfed" d="M 23.996094 88.039062 C 23.683594 88.261719 23.332031 88.414062 22.945312 88.414062 L 15.972656 88.414062 C 14.378906 88.46875 13.503906 86.367188 14.648438 85.273438 C 15.015625 84.910156 15.457031 84.730469 15.972656 84.722656 L 22.945312 84.722656 C 24.683594 84.648438 25.503906 87.136719 23.996094 88.039062 Z M 29.0625 89.980469 C 25.085938 100.644531 9.460938 97.988281 9.269531 86.570312 C 9.1875 81.042969 13.9375 76.289062 19.453125 76.375 C 26.359375 76.253906 31.472656 83.515625 29.0625 89.980469 Z M 22.945312 82.078125 L 15.972656 82.078125 C 14.734375 82.078125 13.671875 82.515625 12.792969 83.386719 C 9.960938 86.101562 12.054688 91.132812 15.972656 91.054688 L 22.945312 91.054688 C 24.183594 91.058594 25.242188 90.621094 26.113281 89.742188 C 28.953125 87.023438 26.875 82.003906 22.945312 82.078125 Z M 76.910156 67.109375 C 70.820312 63.742188 67.691406 56.171875 69.652344 49.492188 L 59.210938 49.492188 C 63.28125 64.28125 49.988281 78.433594 34.972656 75.164062 C 11.226562 69.542969 14.402344 35.457031 38.699219 34.296875 C 38.699219 34.296875 38.984375 34.285156 39.441406 34.296875 L 47.535156 21.738281 C 46.519531 19.78125 45.945312 17.703125 45.808594 15.503906 C 45.726562 14.152344 44.769531 13.070312 43.535156 12.933594 C 40.066406 12.566406 36.601562 12.640625 33.148438 13.152344 C 31.9375 13.328125 31.03125 14.433594 30.980469 15.773438 C 30.773438 26.824219 18.5 34.15625 8.660156 29.125 C 7.464844 28.542969 6.070312 28.828125 5.351562 29.804688 C 3.320312 32.5625 1.648438 35.523438 0.332031 38.691406 C -0.132812 39.847656 0.351562 41.175781 1.519531 41.902344 C 11.121094 47.695312 11.246094 62.175781 1.714844 68.074219 C 0.5625 68.808594 0.078125 70.160156 0.566406 71.285156 C 1.308594 73.027344 2.164062 74.707031 3.140625 76.328125 C 4.464844 78.050781 5.398438 81.191406 7.890625 80.996094 C 15.273438 66.914062 36.023438 75.148438 31.6875 90.464844 C 32.386719 92.632812 31.414062 96.09375 34.476562 96.484375 C 37.855469 96.878906 41.230469 96.851562 44.601562 96.414062 C 45.941406 96.246094 46.953125 95.117188 46.929688 93.832031 C 46.8125 89.0625 48.972656 84.414062 52.699219 81.402344 C 53.253906 80.964844 53.835938 80.566406 54.441406 80.203125 C 55.613281 79.496094 56.855469 78.957031 58.171875 78.582031 C 59.488281 78.207031 60.828125 78.011719 62.195312 77.992188 C 63.5625 77.972656 64.910156 78.132812 66.234375 78.472656 C 67.5625 78.8125 68.820312 79.316406 70.011719 79.988281 C 71.136719 80.625 72.550781 80.324219 73.296875 79.285156 C 75.292969 76.496094 76.929688 73.511719 78.207031 70.332031 C 78.671875 69.152344 78.125 67.796875 76.910156 67.109375 Z M 86.125 35.898438 C 87.230469 37.488281 85.941406 39.839844 84.011719 39.769531 L 51.628906 39.769531 C 51.167969 39.773438 50.742188 39.65625 50.34375 39.421875 C 49.949219 39.1875 49.640625 38.871094 49.417969 38.464844 C 49.199219 38.0625 49.097656 37.632812 49.113281 37.171875 C 49.128906 36.710938 49.261719 36.289062 49.507812 35.902344 L 65.710938 10.757812 C 66.621094 9.230469 69.015625 9.230469 69.929688 10.761719 Z M 67.820312 30.292969 C 62.277344 30.46875 62.277344 38.5 67.820312 38.675781 C 73.355469 38.5 73.359375 30.46875 67.820312 30.292969 Z M 69.179688 14.535156 L 66.457031 14.535156 C 64.585938 14.488281 63.003906 16.289062 63.292969 18.136719 L 64.324219 25.988281 C 64.839844 29.8125 70.4375 29.90625 71.054688 26.089844 L 72.332031 18.234375 C 72.683594 16.355469 71.085938 14.488281 69.179688 14.535156 Z M 54.710938 56.574219 L 57.199219 56.574219 C 56.859375 60.433594 55.234375 64.179688 52.605469 67.03125 L 50.8125 65.238281 C 50.6875 65.117188 50.546875 65.023438 50.382812 64.960938 C 50.222656 64.898438 50.054688 64.867188 49.882812 64.867188 C 49.710938 64.871094 49.542969 64.902344 49.382812 64.972656 C 49.222656 65.039062 49.082031 65.132812 48.960938 65.253906 C 48.839844 65.378906 48.742188 65.519531 48.675781 65.679688 C 48.609375 65.839844 48.574219 66.003906 48.574219 66.175781 C 48.570312 66.351562 48.601562 66.519531 48.667969 66.679688 C 48.730469 66.839844 48.820312 66.984375 48.941406 67.109375 L 50.691406 68.851562 C 47.824219 71.324219 44.089844 72.703125 40.332031 72.933594 L 40.332031 70.390625 C 40.332031 70.214844 40.300781 70.046875 40.230469 69.882812 C 40.164062 69.722656 40.070312 69.578125 39.945312 69.453125 C 39.820312 69.328125 39.675781 69.234375 39.515625 69.167969 C 39.351562 69.101562 39.183594 69.066406 39.007812 69.066406 C 38.832031 69.066406 38.664062 69.101562 38.503906 69.167969 C 38.339844 69.234375 38.199219 69.328125 38.074219 69.453125 C 37.949219 69.578125 37.855469 69.722656 37.785156 69.882812 C 37.71875 70.046875 37.6875 70.214844 37.6875 70.390625 L 37.6875 72.882812 C 33.96875 72.585938 30.351562 71.074219 27.542969 68.609375 L 29.253906 66.898438 C 29.589844 66.550781 29.707031 66.140625 29.609375 65.667969 L 29.609375 65.65625 L 29.597656 65.65625 C 29.597656 65.65625 29.597656 65.648438 29.59375 65.648438 L 29.59375 65.640625 C 29.59375 65.632812 29.59375 65.628906 29.589844 65.628906 L 29.589844 65.609375 L 29.585938 65.609375 C 29.5 65.441406 29.410156 65.28125 29.308594 65.125 L 29.292969 65.125 C 29.292969 65.121094 29.289062 65.113281 29.285156 65.109375 L 29.261719 65.109375 C 29.261719 65.105469 29.257812 65.105469 29.253906 65.105469 L 29.25 65.105469 L 29.242188 65.097656 L 29.234375 65.097656 C 28.8125 64.695312 28.160156 64.660156 27.65625 64.917969 L 27.644531 64.917969 C 27.644531 64.917969 27.640625 64.917969 27.640625 64.921875 L 27.617188 64.9375 L 27.597656 64.945312 L 27.515625 64.945312 C 27.511719 64.949219 27.511719 64.945312 27.511719 64.945312 L 27.484375 64.945312 C 27.484375 64.949219 27.480469 64.945312 27.480469 64.945312 L 27.472656 64.945312 C 27.46875 64.945312 27.464844 64.945312 27.464844 64.949219 L 27.417969 64.949219 C 27.414062 64.949219 27.414062 64.953125 27.414062 64.957031 L 27.410156 64.957031 L 27.394531 64.96875 L 25.683594 66.675781 C 23.160156 63.894531 21.652344 60.246094 21.320312 56.519531 L 23.820312 56.519531 C 23.996094 56.519531 24.164062 56.488281 24.328125 56.417969 C 24.488281 56.351562 24.632812 56.257812 24.757812 56.132812 C 24.882812 56.007812 24.976562 55.867188 25.042969 55.703125 C 25.109375 55.539062 25.144531 55.371094 25.144531 55.195312 C 25.144531 55.019531 25.109375 54.851562 25.042969 54.691406 C 24.976562 54.527344 24.882812 54.386719 24.757812 54.261719 C 24.632812 54.136719 24.488281 54.042969 24.328125 53.972656 C 24.164062 53.90625 23.996094 53.875 23.820312 53.875 L 21.296875 53.875 C 21.476562 50.085938 22.9375 46.382812 25.367188 43.476562 L 27.117188 45.277344 C 27.242188 45.390625 27.386719 45.476562 27.542969 45.535156 C 27.703125 45.59375 27.867188 45.621094 28.035156 45.617188 C 28.207031 45.613281 28.367188 45.578125 28.523438 45.511719 C 28.679688 45.441406 28.816406 45.351562 28.9375 45.230469 C 29.054688 45.109375 29.148438 44.972656 29.21875 44.816406 C 29.285156 44.664062 29.320312 44.5 29.324219 44.332031 C 29.328125 44.164062 29.304688 44 29.246094 43.839844 C 29.1875 43.679688 29.101562 43.539062 28.988281 43.410156 L 27.199219 41.621094 C 30.035156 38.953125 33.828125 37.335938 37.699219 37.035156 C 34.515625 42.34375 38.808594 49.703125 45.023438 49.492188 L 56.433594 49.492188 C 56.886719 50.929688 57.191406 52.417969 57.25 53.925781 L 54.710938 53.925781 C 52.976562 53.957031 52.976562 56.542969 54.710938 56.574219 Z M 40.167969 55.25 C 40.167969 55.074219 40.132812 54.90625 40.066406 54.742188 C 40 54.582031 39.902344 54.4375 39.78125 54.3125 C 39.65625 54.191406 39.511719 54.09375 39.351562 54.027344 C 39.1875 53.960938 39.019531 53.925781 38.84375 53.925781 L 32.460938 53.925781 C 30.71875 53.957031 30.71875 56.542969 32.460938 56.574219 L 37.519531 56.574219 L 37.519531 64.640625 C 37.550781 66.375 40.136719 66.375 40.167969 64.640625 Z M 90.609375 46.847656 C 77.199219 46.84375 58.292969 46.855469 45.023438 46.847656 C 40.605469 47 37.695312 41.621094 40.203125 38 L 63 2.628906 C 63.128906 2.425781 63.269531 2.234375 63.425781 2.050781 C 63.578125 1.867188 63.742188 1.695312 63.917969 1.53125 C 64.089844 1.371094 64.277344 1.21875 64.46875 1.078125 C 64.664062 0.941406 64.863281 0.8125 65.074219 0.699219 C 65.285156 0.582031 65.5 0.484375 65.722656 0.394531 C 65.945312 0.308594 66.171875 0.234375 66.402344 0.175781 C 66.632812 0.117188 66.867188 0.0742188 67.105469 0.0429688 C 67.34375 0.0117188 67.582031 0 67.820312 0 C 68.058594 0 68.296875 0.0117188 68.53125 0.0429688 C 68.769531 0.0742188 69.003906 0.117188 69.234375 0.175781 C 69.46875 0.234375 69.695312 0.308594 69.917969 0.394531 C 70.136719 0.484375 70.355469 0.582031 70.5625 0.699219 C 70.773438 0.8125 70.976562 0.941406 71.167969 1.078125 C 71.363281 1.21875 71.546875 1.371094 71.722656 1.53125 C 71.898438 1.695312 72.0625 1.867188 72.214844 2.050781 C 72.367188 2.234375 72.507812 2.425781 72.636719 2.628906 L 95.4375 38 C 97.957031 41.628906 95.019531 47.003906 90.609375 46.847656 Z M 88.351562 34.46875 L 72.152344 9.332031 C 72.039062 9.152344 71.910156 8.976562 71.773438 8.8125 C 71.636719 8.648438 71.488281 8.492188 71.332031 8.34375 C 71.175781 8.195312 71.007812 8.058594 70.835938 7.933594 C 70.660156 7.808594 70.480469 7.691406 70.289062 7.589844 C 70.101562 7.484375 69.90625 7.394531 69.707031 7.316406 C 69.507812 7.238281 69.304688 7.171875 69.097656 7.117188 C 68.886719 7.0625 68.675781 7.023438 68.464844 6.996094 C 68.25 6.96875 68.035156 6.957031 67.820312 6.957031 C 67.605469 6.957031 67.390625 6.96875 67.179688 6.996094 C 66.964844 7.023438 66.753906 7.0625 66.546875 7.117188 C 66.335938 7.167969 66.132812 7.234375 65.933594 7.3125 C 65.734375 7.394531 65.539062 7.484375 65.351562 7.585938 C 65.160156 7.691406 64.980469 7.804688 64.804688 7.929688 C 64.632812 8.054688 64.464844 8.191406 64.308594 8.339844 C 64.152344 8.488281 64.003906 8.640625 63.867188 8.808594 C 63.726562 8.972656 63.601562 9.144531 63.484375 9.328125 L 47.289062 34.46875 C 46.25 36.082031 46.179688 38.050781 47.09375 39.730469 C 48.011719 41.414062 49.707031 42.417969 51.628906 42.417969 L 84.011719 42.417969 C 85.929688 42.417969 87.621094 41.414062 88.539062 39.730469 C 89.453125 38.050781 89.386719 36.082031 88.351562 34.46875 Z M 69.179688 17.179688 L 66.457031 17.179688 C 66.070312 17.222656 65.910156 17.410156 65.914062 17.792969 L 66.945312 25.644531 C 67.035156 26.476562 68.332031 26.503906 68.445312 25.664062 L 69.71875 17.804688 C 69.738281 17.417969 69.570312 17.222656 69.179688 17.179688 Z M 67.820312 32.9375 C 65.785156 32.972656 65.785156 35.996094 67.820312 36.035156 C 69.851562 35.996094 69.851562 32.972656 67.820312 32.9375 Z M 67.820312 32.9375 " fill-opacity="1" fill-rule="nonzero"/></g><g fill="#35bfed" fill-opacity="1"><g transform="translate(57.243226, 68.626197)"><g><path d="M 2.5 -1.75 C 2.5 -2.476562 2.664062 -3.03125 3 -3.40625 C 3.34375 -3.789062 3.828125 -3.984375 4.453125 -3.984375 C 5.085938 -3.984375 5.582031 -3.789062 5.9375 -3.40625 C 6.289062 -3.03125 6.46875 -2.476562 6.46875 -1.75 C 6.46875 -1.03125 6.285156 -0.476562 5.921875 -0.09375 C 5.566406 0.289062 5.078125 0.484375 4.453125 0.484375 C 3.890625 0.484375 3.421875 0.3125 3.046875 -0.03125 C 2.679688 -0.382812 2.5 -0.957031 2.5 -1.75 Z M 2.5 -1.75 "/></g></g></g></svg>