<svg xmlns="http://www.w3.org/2000/svg" xmlns:xlink="http://www.w3.org/1999/xlink" width="132" zoomAndPan="magnify" viewBox="0 0 98.88 78.749999" height="105" preserveAspectRatio="xMidYMid meet" version="1.0"><defs><g/><clipPath id="09a1acd544"><path d="M 0.0976562 46 L 73 46 L 73 60 L 0.0976562 60 Z M 0.0976562 46 " clip-rule="nonzero"/></clipPath><clipPath id="b87b206826"><path d="M 22 70 L 51 70 L 51 77.753906 L 22 77.753906 Z M 22 70 " clip-rule="nonzero"/></clipPath><clipPath id="847571d1d2"><path d="M 68 35 L 98.035156 35 L 98.035156 66 L 68 66 Z M 68 35 " clip-rule="nonzero"/></clipPath><clipPath id="e1b44b28cb"><path d="M 0.0976562 13 L 73 13 L 73 49 L 0.0976562 49 Z M 0.0976562 13 " clip-rule="nonzero"/></clipPath></defs><g clip-path="url(#09a1acd544)"><path fill="#35bfed" d="M 2.09375 48.371094 L 2.09375 55.46875 C 2.09375 56.867188 3.230469 58.007812 4.632812 58.007812 L 67.886719 58.007812 C 69.285156 58.007812 70.421875 56.867188 70.421875 55.46875 L 70.421875 48.371094 Z M 67.886719 59.964844 L 4.632812 59.964844 C 2.152344 59.964844 0.132812 57.949219 0.132812 55.46875 L 0.132812 47.390625 C 0.132812 46.847656 0.574219 46.410156 1.113281 46.410156 L 71.402344 46.410156 C 71.945312 46.410156 72.382812 46.847656 72.382812 47.390625 L 72.382812 55.46875 C 72.382812 57.949219 70.367188 59.964844 67.886719 59.964844 " fill-opacity="1" fill-rule="nonzero"/></g><path fill="#35bfed" d="M 26.648438 70.714844 L 46.238281 70.714844 L 44.511719 59.964844 L 28.433594 59.964844 Z M 47.386719 72.675781 L 25.492188 72.675781 C 25.203125 72.675781 24.929688 72.546875 24.742188 72.328125 C 24.554688 72.109375 24.476562 71.816406 24.523438 71.535156 L 26.632812 58.824219 C 26.714844 58.351562 27.121094 58.007812 27.601562 58.007812 L 45.347656 58.007812 C 45.828125 58.007812 46.238281 58.355469 46.3125 58.832031 L 48.355469 71.539062 C 48.398438 71.820312 48.320312 72.109375 48.132812 72.328125 C 47.945312 72.546875 47.671875 72.675781 47.386719 72.675781 " fill-opacity="1" fill-rule="nonzero"/><g clip-path="url(#b87b206826)"><path fill="#35bfed" d="M 24.113281 76.121094 L 48.835938 76.121094 L 48.835938 72.675781 L 24.113281 72.675781 Z M 49.816406 78.082031 L 23.132812 78.082031 C 22.589844 78.082031 22.152344 77.640625 22.152344 77.101562 L 22.152344 71.695312 C 22.152344 71.152344 22.589844 70.714844 23.132812 70.714844 L 49.816406 70.714844 C 50.359375 70.714844 50.796875 71.152344 50.796875 71.695312 L 50.796875 77.101562 C 50.796875 77.640625 50.359375 78.082031 49.816406 78.082031 " fill-opacity="1" fill-rule="nonzero"/></g><path fill="#35bfed" d="M 50.9375 32.359375 C 50.6875 32.359375 50.4375 32.265625 50.246094 32.074219 C 49.859375 31.691406 49.859375 31.074219 50.242188 30.6875 L 71.085938 9.6875 C 71.46875 9.304688 72.089844 9.300781 72.472656 9.683594 C 72.859375 10.0625 72.859375 10.683594 72.480469 11.070312 L 51.632812 32.070312 C 51.441406 32.261719 51.1875 32.359375 50.9375 32.359375 " fill-opacity="1" fill-rule="nonzero"/><path fill="#35bfed" d="M 47.910156 32.160156 C 47.660156 32.160156 47.40625 32.0625 47.214844 31.871094 L 40.511719 25.167969 C 40.128906 24.785156 40.128906 24.164062 40.511719 23.78125 C 40.894531 23.398438 41.515625 23.398438 41.898438 23.78125 L 48.601562 30.488281 C 48.984375 30.871094 48.984375 31.492188 48.601562 31.871094 C 48.410156 32.0625 48.160156 32.160156 47.910156 32.160156 " fill-opacity="1" fill-rule="nonzero"/><path fill="#35bfed" d="M 26.3125 37.242188 C 26.0625 37.242188 25.808594 37.148438 25.617188 36.957031 C 25.234375 36.574219 25.234375 35.953125 25.617188 35.570312 L 37.289062 23.902344 C 37.671875 23.519531 38.289062 23.519531 38.671875 23.902344 C 39.054688 24.285156 39.054688 24.902344 38.671875 25.285156 L 27.003906 36.957031 C 26.8125 37.148438 26.5625 37.242188 26.3125 37.242188 " fill-opacity="1" fill-rule="nonzero"/><path fill="#35bfed" d="M 23.097656 37.433594 C 22.84375 37.433594 22.59375 37.335938 22.402344 37.144531 L 19.792969 34.535156 C 19.410156 34.152344 19.410156 33.53125 19.792969 33.148438 C 20.175781 32.765625 20.796875 32.765625 21.179688 33.148438 L 23.789062 35.761719 C 24.171875 36.140625 24.171875 36.761719 23.789062 37.144531 C 23.597656 37.335938 23.347656 37.433594 23.097656 37.433594 " fill-opacity="1" fill-rule="nonzero"/><path fill="#35bfed" d="M 9.496094 42.484375 C 9.246094 42.484375 8.996094 42.390625 8.804688 42.199219 C 8.421875 41.816406 8.421875 41.195312 8.804688 40.8125 L 16.449219 33.164062 C 16.832031 32.785156 17.453125 32.785156 17.835938 33.164062 C 18.21875 33.550781 18.21875 34.167969 17.835938 34.550781 L 10.191406 42.199219 C 10 42.390625 9.75 42.484375 9.496094 42.484375 " fill-opacity="1" fill-rule="nonzero"/><path fill="#35bfed" d="M 18.824219 31.117188 C 18.238281 31.117188 17.761719 31.59375 17.761719 32.179688 C 17.761719 32.765625 18.238281 33.242188 18.824219 33.242188 C 19.410156 33.242188 19.882812 32.765625 19.882812 32.179688 C 19.882812 31.59375 19.410156 31.117188 18.824219 31.117188 Z M 18.824219 35.203125 C 17.15625 35.203125 15.800781 33.847656 15.800781 32.179688 C 15.800781 30.515625 17.15625 29.160156 18.824219 29.160156 C 20.488281 29.160156 21.84375 30.515625 21.84375 32.179688 C 21.84375 33.847656 20.488281 35.203125 18.824219 35.203125 " fill-opacity="1" fill-rule="nonzero"/><path fill="#35bfed" d="M 24.574219 36.871094 C 23.988281 36.871094 23.511719 37.347656 23.511719 37.929688 C 23.511719 38.519531 23.988281 38.992188 24.574219 38.992188 C 25.160156 38.992188 25.636719 38.519531 25.636719 37.929688 C 25.636719 37.347656 25.160156 36.871094 24.574219 36.871094 Z M 24.574219 40.953125 C 22.910156 40.953125 21.554688 39.597656 21.554688 37.929688 C 21.554688 36.265625 22.910156 34.910156 24.574219 34.910156 C 26.242188 34.910156 27.597656 36.265625 27.597656 37.929688 C 27.597656 39.597656 26.242188 40.953125 24.574219 40.953125 " fill-opacity="1" fill-rule="nonzero"/><path fill="#35bfed" d="M 39.507812 21.9375 C 38.921875 21.9375 38.445312 22.414062 38.445312 23 C 38.445312 23.585938 38.921875 24.0625 39.507812 24.0625 C 40.09375 24.0625 40.570312 23.585938 40.570312 23 C 40.570312 22.414062 40.09375 21.9375 39.507812 21.9375 Z M 39.507812 26.023438 C 37.839844 26.023438 36.484375 24.664062 36.484375 23 C 36.484375 21.332031 37.839844 19.976562 39.507812 19.976562 C 41.171875 19.976562 42.53125 21.332031 42.53125 23 C 42.53125 24.664062 41.171875 26.023438 39.507812 26.023438 " fill-opacity="1" fill-rule="nonzero"/><path fill="#35bfed" d="M 49.398438 31.828125 C 48.8125 31.828125 48.335938 32.304688 48.335938 32.890625 C 48.335938 33.472656 48.8125 33.949219 49.398438 33.949219 C 49.980469 33.949219 50.457031 33.472656 50.457031 32.890625 C 50.457031 32.304688 49.980469 31.828125 49.398438 31.828125 Z M 49.398438 35.910156 C 47.730469 35.910156 46.375 34.554688 46.375 32.890625 C 46.375 31.222656 47.730469 29.867188 49.398438 29.867188 C 51.0625 29.867188 52.417969 31.222656 52.417969 32.890625 C 52.417969 34.554688 51.0625 35.910156 49.398438 35.910156 " fill-opacity="1" fill-rule="nonzero"/><path fill="#35bfed" d="M 36.472656 51.398438 C 35.5 51.398438 34.707031 52.191406 34.707031 53.167969 C 34.707031 54.140625 35.5 54.933594 36.472656 54.933594 C 37.449219 54.933594 38.238281 54.140625 38.238281 53.167969 C 38.238281 52.191406 37.449219 51.398438 36.472656 51.398438 Z M 36.472656 56.894531 C 34.417969 56.894531 32.746094 55.222656 32.746094 53.167969 C 32.746094 51.113281 34.417969 49.441406 36.472656 49.441406 C 38.527344 49.441406 40.199219 51.113281 40.199219 53.167969 C 40.199219 55.222656 38.527344 56.894531 36.472656 56.894531 " fill-opacity="1" fill-rule="nonzero"/><path fill="#35bfed" d="M 55.074219 1.957031 C 49.683594 1.957031 44.617188 4.058594 40.804688 7.867188 C 36.996094 11.679688 34.894531 16.746094 34.894531 22.136719 C 34.894531 27.527344 36.996094 32.59375 40.804688 36.40625 C 48.675781 44.273438 61.476562 44.273438 69.34375 36.40625 C 73.15625 32.59375 75.253906 27.527344 75.253906 22.136719 C 75.253906 16.746094 73.15625 11.679688 69.34375 7.867188 C 65.53125 4.058594 60.464844 1.957031 55.074219 1.957031 Z M 55.074219 44.277344 C 49.160156 44.277344 43.601562 41.972656 39.421875 37.792969 C 35.238281 33.609375 32.9375 28.050781 32.9375 22.136719 C 32.9375 16.222656 35.238281 10.664062 39.421875 6.480469 C 43.601562 2.300781 49.160156 0 55.074219 0 C 60.988281 0 66.546875 2.300781 70.730469 6.480469 C 74.910156 10.664062 77.214844 16.222656 77.214844 22.136719 C 77.214844 28.050781 74.910156 33.609375 70.730469 37.792969 C 66.546875 41.972656 60.988281 44.277344 55.074219 44.277344 " fill-opacity="1" fill-rule="nonzero"/><g clip-path="url(#847571d1d2)"><path fill="#35bfed" d="M 71.234375 43.507812 L 90.253906 62.527344 C 90.796875 63.074219 91.523438 63.375 92.296875 63.375 C 93.066406 63.375 93.792969 63.074219 94.335938 62.527344 L 95.464844 61.398438 C 96.011719 60.851562 96.3125 60.128906 96.3125 59.355469 C 96.3125 58.585938 96.011719 57.859375 95.464844 57.316406 L 76.445312 38.296875 Z M 92.296875 65.332031 C 91 65.332031 89.785156 64.828125 88.867188 63.914062 L 69.15625 44.203125 C 68.773438 43.820312 68.773438 43.199219 69.15625 42.816406 L 75.753906 36.214844 C 76.136719 35.835938 76.757812 35.835938 77.140625 36.214844 L 96.851562 55.929688 C 97.765625 56.84375 98.273438 58.0625 98.273438 59.355469 C 98.273438 60.652344 97.765625 61.871094 96.851562 62.785156 L 95.722656 63.914062 C 94.808594 64.828125 93.589844 65.332031 92.296875 65.332031 " fill-opacity="1" fill-rule="nonzero"/></g><path fill="#35bfed" d="M 69.660156 38.792969 L 71.421875 40.550781 L 73.488281 38.480469 L 71.730469 36.722656 C 71.40625 37.089844 71.070312 37.449219 70.730469 37.792969 C 70.386719 38.132812 70.03125 38.46875 69.660156 38.792969 Z M 71.421875 42.917969 C 71.167969 42.917969 70.917969 42.820312 70.726562 42.628906 L 67.515625 39.417969 C 67.320312 39.222656 67.214844 38.949219 67.230469 38.667969 C 67.246094 38.390625 67.382812 38.132812 67.601562 37.957031 C 68.214844 37.472656 68.800781 36.949219 69.34375 36.40625 C 69.886719 35.863281 70.410156 35.273438 70.898438 34.660156 C 71.070312 34.441406 71.328125 34.308594 71.609375 34.292969 C 71.886719 34.277344 72.160156 34.378906 72.355469 34.578125 L 75.570312 37.789062 C 75.949219 38.171875 75.949219 38.792969 75.570312 39.175781 L 72.113281 42.628906 C 71.921875 42.820312 71.671875 42.917969 71.421875 42.917969 " fill-opacity="1" fill-rule="nonzero"/><path fill="#35bfed" d="M 70.449219 37.652344 C 70.210938 37.652344 69.96875 37.5625 69.777344 37.382812 C 69.574219 37.191406 69.46875 36.929688 69.472656 36.671875 C 69.472656 36.429688 69.558594 36.1875 69.738281 36 L 69.8125 35.917969 C 70.179688 35.523438 70.800781 35.503906 71.195312 35.875 C 71.589844 36.242188 71.613281 36.863281 71.242188 37.257812 L 71.164062 37.34375 C 70.972656 37.546875 70.710938 37.652344 70.449219 37.652344 " fill-opacity="1" fill-rule="nonzero"/><path fill="#35bfed" d="M 71.269531 36.730469 C 71.046875 36.730469 70.820312 36.652344 70.636719 36.496094 C 70.410156 36.304688 70.292969 36.027344 70.292969 35.75 C 70.292969 35.527344 70.367188 35.300781 70.523438 35.117188 L 70.546875 35.089844 C 70.898438 34.679688 71.515625 34.628906 71.925781 34.980469 C 72.15625 35.175781 72.273438 35.453125 72.273438 35.726562 C 72.273438 35.953125 72.195312 36.179688 72.039062 36.363281 L 72.019531 36.386719 C 71.824219 36.613281 71.546875 36.730469 71.269531 36.730469 " fill-opacity="1" fill-rule="nonzero"/><g clip-path="url(#e1b44b28cb)"><path fill="#35bfed" d="M 2.09375 46.410156 L 70.421875 46.410156 L 70.421875 45.46875 L 69.15625 44.203125 C 68.972656 44.019531 68.867188 43.769531 68.867188 43.507812 C 68.867188 43.25 68.972656 43 69.15625 42.816406 L 70.035156 41.9375 L 68.121094 40.023438 C 64.226562 42.878906 59.648438 44.285156 55.085938 44.285156 C 49.394531 44.285156 43.722656 42.09375 39.421875 37.792969 C 36.261719 34.632812 34.152344 30.648438 33.324219 26.277344 C 32.609375 22.484375 32.882812 18.613281 34.117188 14.992188 L 4.632812 14.992188 C 3.230469 14.992188 2.09375 16.132812 2.09375 17.53125 Z M 71.402344 48.371094 L 1.113281 48.371094 C 0.574219 48.371094 0.132812 47.929688 0.132812 47.390625 L 0.132812 17.53125 C 0.132812 15.050781 2.152344 13.035156 4.632812 13.035156 L 35.535156 13.035156 C 35.859375 13.035156 36.167969 13.199219 36.347656 13.46875 C 36.53125 13.742188 36.5625 14.085938 36.4375 14.390625 C 34.925781 18.035156 34.515625 22.019531 35.25 25.910156 C 36.007812 29.894531 37.925781 33.523438 40.804688 36.40625 C 48.058594 43.65625 59.570312 44.324219 67.59375 37.964844 C 67.617188 37.945312 67.640625 37.925781 67.664062 37.910156 C 68.066406 37.644531 68.59375 37.710938 68.917969 38.050781 L 72.097656 41.226562 C 72.28125 41.410156 72.382812 41.660156 72.382812 41.917969 L 72.382812 41.953125 C 72.382812 42.214844 72.28125 42.460938 72.097656 42.648438 L 71.234375 43.507812 L 72.097656 44.371094 C 72.28125 44.554688 72.382812 44.804688 72.382812 45.0625 L 72.382812 47.390625 C 72.382812 47.929688 71.945312 48.371094 71.402344 48.371094 " fill-opacity="1" fill-rule="nonzero"/></g><path fill="#35bfed" d="M 70.863281 37.203125 C 70.632812 37.203125 70.398438 37.121094 70.210938 36.953125 C 69.808594 36.59375 69.773438 35.972656 70.132812 35.570312 L 70.183594 35.511719 C 70.542969 35.105469 71.164062 35.070312 71.566406 35.429688 C 71.785156 35.621094 71.894531 35.890625 71.894531 36.164062 C 71.894531 36.394531 71.816406 36.625 71.648438 36.8125 L 71.59375 36.875 C 71.402344 37.089844 71.132812 37.203125 70.863281 37.203125 " fill-opacity="1" fill-rule="nonzero"/><path fill="#35bfed" d="M 69.527344 38.570312 C 69.265625 38.570312 69.003906 38.464844 68.8125 38.257812 C 68.441406 37.863281 68.460938 37.242188 68.855469 36.875 L 68.9375 36.800781 C 69.332031 36.429688 69.949219 36.445312 70.320312 36.839844 C 70.691406 37.230469 70.675781 37.851562 70.285156 38.222656 C 70.265625 38.242188 70.246094 38.261719 70.226562 38.277344 L 70.195312 38.304688 C 70.007812 38.480469 69.769531 38.570312 69.527344 38.570312 " fill-opacity="1" fill-rule="nonzero"/><path fill="#35bfed" d="M 68.667969 39.332031 C 68.386719 39.332031 68.109375 39.214844 67.917969 38.984375 C 67.761719 38.800781 67.6875 38.578125 67.6875 38.355469 C 67.6875 38.074219 67.804688 37.796875 68.035156 37.605469 L 68.058594 37.582031 C 68.472656 37.234375 69.089844 37.289062 69.4375 37.703125 C 69.59375 37.886719 69.667969 38.109375 69.667969 38.332031 C 69.667969 38.613281 69.550781 38.890625 69.320312 39.082031 L 69.296875 39.101562 C 69.113281 39.257812 68.890625 39.332031 68.667969 39.332031 " fill-opacity="1" fill-rule="nonzero"/><path fill="#35bfed" d="M 69.101562 38.957031 C 68.832031 38.957031 68.5625 38.847656 68.367188 38.628906 C 68.203125 38.441406 68.121094 38.210938 68.121094 37.980469 C 68.121094 37.707031 68.230469 37.4375 68.449219 37.246094 L 68.507812 37.191406 C 68.914062 36.835938 69.53125 36.871094 69.890625 37.273438 C 70.253906 37.679688 70.214844 38.296875 69.8125 38.65625 L 69.75 38.710938 C 69.566406 38.875 69.332031 38.957031 69.101562 38.957031 " fill-opacity="1" fill-rule="nonzero"/><g fill="#35bfed" fill-opacity="1"><g transform="translate(31.686091, 54.307671)"><g><path d="M 2.515625 -1.75 C 2.515625 -2.488281 2.679688 -3.046875 3.015625 -3.421875 C 3.359375 -3.804688 3.84375 -4 4.46875 -4 C 5.101562 -4 5.597656 -3.804688 5.953125 -3.421875 C 6.316406 -3.046875 6.5 -2.488281 6.5 -1.75 C 6.5 -1.03125 6.316406 -0.476562 5.953125 -0.09375 C 5.585938 0.289062 5.09375 0.484375 4.46875 0.484375 C 3.90625 0.484375 3.4375 0.3125 3.0625 -0.03125 C 2.695312 -0.382812 2.515625 -0.957031 2.515625 -1.75 Z M 2.515625 -1.75 "/></g></g></g></svg>