<svg xmlns="http://www.w3.org/2000/svg" xmlns:xlink="http://www.w3.org/1999/xlink" width="113" zoomAndPan="magnify" viewBox="0 0 84.75 85.499998" height="114" preserveAspectRatio="xMidYMid meet" version="1.0"><defs><g/><clipPath id="92da990672"><path d="M 0.121094 10.585938 L 83.632812 10.585938 L 83.632812 85 L 0.121094 85 Z M 0.121094 10.585938 " clip-rule="nonzero"/></clipPath></defs><g clip-path="url(#92da990672)"><path fill="#35bfed" d="M 38.265625 11.003906 C 38.128906 11.023438 37.996094 11.070312 37.882812 11.152344 C 37.65625 11.3125 37.515625 11.582031 37.515625 11.859375 L 37.515625 18.148438 L 35.816406 18.148438 C 35.066406 18.148438 34.464844 18.75 34.464844 19.5 L 34.464844 23.601562 L 43.175781 23.601562 L 43.175781 19.5 C 43.175781 18.75 42.574219 18.148438 41.824219 18.148438 L 40.128906 18.148438 L 40.128906 12.167969 C 40.128906 11.808594 39.882812 11.464844 39.542969 11.34375 L 38.671875 11.039062 C 38.542969 10.992188 38.402344 10.980469 38.265625 11.003906 Z M 48.722656 11.003906 C 48.585938 11.023438 48.453125 11.070312 48.339844 11.152344 C 48.113281 11.3125 47.972656 11.582031 47.972656 11.859375 L 47.972656 18.148438 L 46.277344 18.148438 C 45.527344 18.148438 44.921875 18.75 44.921875 19.5 L 44.921875 23.601562 L 53.636719 23.601562 L 53.636719 19.5 C 53.636719 18.75 53.035156 18.148438 52.285156 18.148438 L 50.585938 18.148438 L 50.585938 12.167969 C 50.585938 11.808594 50.34375 11.464844 50.003906 11.34375 L 49.132812 11.039062 C 49.003906 10.992188 48.863281 10.980469 48.722656 11.003906 Z M 59.179688 11.003906 C 59.042969 11.023438 58.90625 11.070312 58.796875 11.152344 C 58.570312 11.3125 58.433594 11.582031 58.433594 11.859375 L 58.433594 18.148438 L 56.734375 18.148438 C 55.984375 18.148438 55.378906 18.75 55.378906 19.5 L 55.378906 23.601562 L 64.09375 23.601562 L 64.09375 19.5 C 64.09375 18.75 63.492188 18.148438 62.746094 18.148438 L 61.042969 18.148438 L 61.042969 12.167969 C 61.042969 11.808594 60.796875 11.464844 60.457031 11.34375 L 59.585938 11.039062 C 59.457031 10.992188 59.316406 10.980469 59.179688 11.003906 Z M 26.785156 20.433594 C 26.484375 20.441406 26.195312 20.453125 25.886719 20.472656 C 25.863281 20.472656 25.839844 20.476562 25.8125 20.480469 C 24.585938 20.511719 23.484375 21.253906 22.988281 22.367188 C 22.984375 22.375 22.980469 22.386719 22.972656 22.398438 C 22.972656 22.398438 22.976562 22.394531 22.964844 22.414062 C 22.964844 22.414062 22.957031 22.425781 22.957031 22.425781 C 22.949219 22.445312 22.949219 22.453125 22.925781 22.5 C 22.917969 22.511719 22.914062 22.519531 22.90625 22.53125 C 22.226562 24.019531 21.820312 25.746094 21.433594 27.636719 C 21.269531 28.425781 20.722656 29.078125 19.976562 29.386719 C 19.941406 29.398438 19.867188 29.441406 19.742188 29.492188 C 18.996094 29.808594 18.140625 29.726562 17.464844 29.277344 C 15.851562 28.210938 14.339844 27.269531 12.800781 26.699219 C 12.75 26.679688 12.695312 26.660156 12.640625 26.644531 C 11.507812 26.207031 10.207031 26.464844 9.324219 27.304688 C 9.308594 27.324219 9.289062 27.34375 9.273438 27.355469 C 9.023438 27.582031 8.816406 27.757812 8.609375 27.957031 C 8.601562 27.960938 8.589844 27.964844 8.582031 27.96875 L 8.578125 27.976562 C 8.570312 27.980469 8.566406 27.984375 8.558594 27.992188 C 8.421875 28.128906 8.289062 28.261719 8.152344 28.398438 C 8.148438 28.402344 8.140625 28.410156 8.132812 28.414062 L 8.128906 28.421875 L 8.117188 28.429688 C 8.113281 28.4375 8.105469 28.441406 8.097656 28.449219 C 7.960938 28.585938 7.835938 28.707031 7.699219 28.84375 C 7.695312 28.847656 7.691406 28.851562 7.691406 28.859375 L 7.683594 28.867188 L 7.671875 28.875 L 7.664062 28.890625 C 7.453125 29.109375 7.253906 29.332031 7.054688 29.558594 C 7.039062 29.578125 7.019531 29.597656 7.003906 29.613281 C 6.164062 30.496094 5.914062 31.796875 6.351562 32.933594 C 6.367188 32.996094 6.382812 33.054688 6.398438 33.117188 C 6.964844 34.648438 7.90625 36.144531 8.96875 37.757812 C 9.421875 38.433594 9.503906 39.292969 9.1875 40.042969 C 9.128906 40.183594 9.085938 40.269531 9.074219 40.296875 C 8.765625 41.039062 8.105469 41.582031 7.316406 41.742188 C 5.425781 42.128906 3.710938 42.539062 2.222656 43.214844 C 2.210938 43.222656 2.199219 43.230469 2.1875 43.234375 C 2.167969 43.246094 2.164062 43.242188 2.15625 43.246094 L 2.140625 43.253906 C 2.132812 43.257812 2.125 43.261719 2.117188 43.265625 L 2.046875 43.296875 C 0.933594 43.792969 0.195312 44.898438 0.164062 46.125 C 0.164062 46.148438 0.160156 46.175781 0.15625 46.199219 C 0.148438 46.496094 0.128906 46.785156 0.121094 47.085938 C 0.121094 47.09375 0.121094 47.101562 0.121094 47.109375 L 0.121094 47.117188 C 0.121094 47.125 0.121094 47.132812 0.121094 47.140625 C 0.121094 47.328125 0.121094 47.507812 0.121094 47.699219 C 0.121094 47.707031 0.121094 47.714844 0.121094 47.722656 L 0.121094 47.753906 C 0.121094 47.761719 0.121094 47.769531 0.121094 47.777344 C 0.121094 47.96875 0.121094 48.144531 0.121094 48.335938 C 0.121094 48.34375 0.121094 48.351562 0.121094 48.359375 L 0.121094 48.367188 C 0.121094 48.375 0.121094 48.378906 0.121094 48.386719 C 0.128906 48.691406 0.144531 48.980469 0.164062 49.285156 C 0.164062 49.3125 0.167969 49.335938 0.167969 49.363281 C 0.203125 50.59375 0.941406 51.691406 2.050781 52.1875 L 2.125 52.21875 C 2.132812 52.222656 2.148438 52.234375 2.160156 52.238281 C 2.167969 52.242188 2.171875 52.238281 2.191406 52.25 C 2.203125 52.253906 2.214844 52.261719 2.230469 52.269531 C 3.714844 52.945312 5.433594 53.355469 7.320312 53.742188 C 8.113281 53.902344 8.769531 54.445312 9.078125 55.191406 C 9.089844 55.214844 9.132812 55.300781 9.195312 55.441406 C 9.511719 56.195312 9.429688 57.050781 8.976562 57.726562 C 7.910156 59.339844 6.972656 60.839844 6.402344 62.367188 C 6.390625 62.429688 6.371094 62.492188 6.355469 62.554688 C 5.917969 63.691406 6.167969 64.992188 7.011719 65.875 C 7.027344 65.890625 7.042969 65.910156 7.058594 65.925781 C 7.261719 66.152344 7.457031 66.371094 7.667969 66.589844 L 7.675781 66.609375 L 7.6875 66.617188 L 7.695312 66.621094 C 7.699219 66.628906 7.703125 66.632812 7.707031 66.640625 C 7.84375 66.777344 7.96875 66.90625 8.105469 67.039062 C 8.109375 67.042969 8.117188 67.050781 8.125 67.054688 L 8.136719 67.066406 L 8.140625 67.074219 C 8.144531 67.078125 8.152344 67.082031 8.160156 67.085938 C 8.292969 67.222656 8.425781 67.355469 8.5625 67.492188 C 8.570312 67.496094 8.574219 67.503906 8.582031 67.507812 L 8.589844 67.511719 C 8.597656 67.519531 8.605469 67.523438 8.613281 67.53125 C 8.820312 67.730469 9.027344 67.898438 9.28125 68.125 C 9.296875 68.144531 9.3125 68.164062 9.328125 68.179688 C 10.214844 69.019531 11.515625 69.269531 12.648438 68.839844 C 12.703125 68.820312 12.753906 68.800781 12.808594 68.789062 C 14.34375 68.21875 15.859375 67.273438 17.472656 66.207031 C 18.148438 65.761719 19.003906 65.683594 19.75 66 C 19.875 66.050781 19.949219 66.089844 19.984375 66.101562 C 20.730469 66.410156 21.277344 67.066406 21.4375 67.855469 C 21.824219 69.746094 22.230469 71.46875 22.910156 72.957031 C 22.917969 72.96875 22.921875 72.976562 22.929688 72.988281 C 22.953125 73.035156 22.953125 73.046875 22.960938 73.066406 C 22.960938 73.066406 22.96875 73.070312 22.96875 73.074219 C 22.980469 73.09375 22.972656 73.09375 22.976562 73.09375 C 22.984375 73.105469 22.988281 73.113281 22.996094 73.125 C 23.492188 74.238281 24.59375 74.980469 25.820312 75.007812 C 25.84375 75.011719 25.871094 75.015625 25.894531 75.019531 C 26.199219 75.039062 26.488281 75.050781 26.792969 75.058594 C 26.800781 75.058594 26.808594 75.058594 26.820312 75.058594 L 26.824219 75.058594 C 26.828125 75.058594 26.839844 75.058594 26.847656 75.058594 C 27.050781 75.058594 27.238281 75.058594 27.4375 75.058594 C 27.453125 75.058594 27.46875 75.058594 27.484375 75.058594 C 27.683594 75.058594 27.871094 75.058594 28.066406 75.058594 C 28.078125 75.058594 28.089844 75.058594 28.105469 75.058594 L 28.117188 75.058594 C 28.414062 75.050781 28.695312 75.039062 28.996094 75.019531 C 29.023438 75.015625 29.046875 75.011719 29.074219 75.007812 C 29.238281 75.003906 29.386719 74.960938 29.546875 74.929688 L 29.546875 57.382812 C 28.855469 57.53125 28.152344 57.605469 27.445312 57.605469 C 22.003906 57.605469 17.589844 53.195312 17.589844 47.75 C 17.589844 42.308594 22 37.898438 27.441406 37.894531 L 27.445312 37.894531 C 28.152344 37.894531 28.855469 37.972656 29.542969 38.121094 L 29.542969 20.558594 C 29.386719 20.53125 29.234375 20.480469 29.070312 20.476562 C 29.042969 20.476562 29.019531 20.472656 28.992188 20.46875 C 28.691406 20.453125 28.414062 20.441406 28.113281 20.433594 L 28.097656 20.433594 C 28.085938 20.433594 28.074219 20.433594 28.058594 20.433594 C 27.863281 20.429688 27.679688 20.429688 27.476562 20.433594 C 27.460938 20.433594 27.445312 20.433594 27.429688 20.433594 C 27.230469 20.429688 27.042969 20.429688 26.839844 20.433594 C 26.832031 20.433594 26.828125 20.433594 26.820312 20.433594 L 26.8125 20.433594 C 26.804688 20.433594 26.796875 20.433594 26.785156 20.433594 Z M 2.160156 52.234375 L 2.199219 52.265625 L 2.199219 52.257812 C 2.183594 52.246094 2.175781 52.242188 2.160156 52.234375 Z M 2.160156 43.238281 C 2.175781 43.230469 2.183594 43.230469 2.199219 43.21875 L 2.199219 43.207031 Z M 31.804688 25.710938 L 31.804688 69.765625 L 65.722656 69.765625 C 67.664062 69.765625 69.226562 68.199219 69.226562 66.257812 L 69.226562 29.214844 C 69.226562 27.273438 67.664062 25.710938 65.722656 25.710938 Z M 71.359375 32.921875 L 71.359375 41.636719 L 75.464844 41.636719 C 76.214844 41.636719 76.816406 41.035156 76.816406 40.289062 L 76.816406 38.585938 L 82.796875 38.585938 C 83.152344 38.585938 83.5 38.34375 83.617188 38.003906 L 83.925781 37.132812 C 84.015625 36.871094 83.972656 36.566406 83.8125 36.339844 C 83.652344 36.113281 83.378906 35.972656 83.105469 35.972656 L 76.816406 35.972656 L 76.816406 34.273438 C 76.816406 33.527344 76.214844 32.921875 75.464844 32.921875 Z M 71.359375 43.378906 L 71.359375 52.097656 L 75.464844 52.097656 C 76.214844 52.097656 76.816406 51.496094 76.816406 50.746094 L 76.816406 49.042969 L 82.796875 49.042969 C 83.152344 49.042969 83.5 48.800781 83.617188 48.460938 L 83.925781 47.589844 C 84.015625 47.328125 83.972656 47.027344 83.8125 46.800781 C 83.652344 46.570312 83.378906 46.429688 83.105469 46.429688 L 76.816406 46.429688 L 76.816406 44.734375 C 76.816406 43.984375 76.214844 43.378906 75.464844 43.378906 Z M 71.359375 53.839844 L 71.359375 62.554688 L 75.464844 62.554688 C 76.214844 62.554688 76.816406 61.953125 76.816406 61.203125 L 76.816406 59.503906 L 82.796875 59.503906 C 83.152344 59.503906 83.5 59.257812 83.617188 58.917969 L 83.925781 58.046875 C 84.015625 57.785156 83.972656 57.480469 83.8125 57.253906 C 83.652344 57.027344 83.378906 56.890625 83.105469 56.890625 L 76.816406 56.890625 L 76.816406 55.191406 C 76.816406 54.441406 76.214844 53.835938 75.464844 53.835938 L 71.359375 53.835938 Z M 34.464844 71.871094 L 34.464844 75.976562 C 34.464844 76.726562 35.066406 77.328125 35.816406 77.328125 L 37.511719 77.328125 L 37.511719 83.617188 C 37.511719 83.894531 37.65625 84.164062 37.882812 84.324219 C 38.105469 84.484375 38.414062 84.527344 38.671875 84.4375 L 39.542969 84.132812 C 39.882812 84.011719 40.128906 83.667969 40.128906 83.308594 L 40.128906 77.328125 L 41.828125 77.328125 C 42.578125 77.328125 43.179688 76.726562 43.179688 75.976562 L 43.179688 71.871094 Z M 44.921875 71.871094 L 44.921875 75.976562 C 44.921875 76.726562 45.527344 77.328125 46.277344 77.328125 L 47.972656 77.328125 L 47.972656 83.617188 C 47.972656 83.894531 48.113281 84.164062 48.339844 84.324219 C 48.566406 84.484375 48.871094 84.527344 49.132812 84.4375 L 50.003906 84.132812 C 50.34375 84.011719 50.585938 83.667969 50.585938 83.308594 L 50.585938 77.328125 L 52.289062 77.328125 C 53.035156 77.328125 53.640625 76.726562 53.640625 75.976562 L 53.640625 71.871094 Z M 55.378906 71.871094 L 55.378906 75.976562 C 55.378906 76.726562 55.984375 77.328125 56.734375 77.328125 L 58.433594 77.328125 L 58.433594 83.617188 C 58.433594 83.894531 58.570312 84.164062 58.796875 84.324219 C 59.023438 84.484375 59.328125 84.527344 59.589844 84.4375 L 60.460938 84.132812 C 60.796875 84.011719 61.042969 83.667969 61.042969 83.308594 L 61.042969 77.328125 L 62.746094 77.328125 C 63.496094 77.328125 64.097656 76.726562 64.097656 75.976562 L 64.097656 71.871094 Z M 55.378906 71.871094 " fill-opacity="1" fill-rule="nonzero"/></g><g fill="#35bfed" fill-opacity="1"><g transform="translate(48.351235, 42.99514)"><g><path d="M 2.515625 -1.75 C 2.515625 -2.488281 2.679688 -3.046875 3.015625 -3.421875 C 3.347656 -3.804688 3.828125 -4 4.453125 -4 C 5.085938 -4 5.582031 -3.804688 5.9375 -3.421875 C 6.300781 -3.046875 6.484375 -2.488281 6.484375 -1.75 C 6.484375 -1.03125 6.300781 -0.476562 5.9375 -0.09375 C 5.570312 0.289062 5.078125 0.484375 4.453125 0.484375 C 3.890625 0.484375 3.425781 0.3125 3.0625 -0.03125 C 2.695312 -0.382812 2.515625 -0.957031 2.515625 -1.75 Z M 2.515625 -1.75 "/></g></g></g></svg>