<svg width="303" height="258" viewBox="0 0 303 258" fill="none" xmlns="http://www.w3.org/2000/svg">
<path d="M276.802 217.682L270.012 225.688L281.099 235.558L287.889 227.552L276.802 217.682Z" fill="#F8A8AB"/>
<path d="M288.195 240.327C289.476 239.065 295.817 232.688 294.575 230.979C293.7 229.883 292.583 229.017 291.316 228.452C284.364 223.415 284.086 223.596 283.919 223.709C283.654 223.882 283.393 224.845 283.15 226.568L283.136 226.676L283.2 226.76C283.285 226.869 285.216 229.448 282.886 231.445C281.292 232.817 279.733 233.224 279.231 232.978C278.335 232.479 277.485 231.897 276.694 231.238L273.558 244.542L270.358 251.556C270.239 251.816 270.179 252.099 270.181 252.386C270.184 252.673 270.249 252.956 270.373 253.213C270.545 253.57 270.821 253.863 271.163 254.052C271.504 254.241 271.895 254.317 272.281 254.268C274.041 254.045 277.293 253.385 279.29 251.426C279.822 250.907 280.476 250.174 281.189 249.333C284.169 245.821 288.167 240.376 288.192 240.331L288.195 240.327Z" fill="#090814"/>
<path d="M258.051 232.792H247.577V248.377H258.051V232.792Z" fill="#F8A8AB"/>
<path d="M248.812 256.646C250.573 256.811 259.389 257.541 259.832 255.427C260.063 254.01 259.969 252.556 259.557 251.185C258.711 242.372 258.395 242.274 258.204 242.217C257.904 242.125 257.028 242.562 255.606 243.519L255.517 243.58L255.497 243.686C255.472 243.825 254.843 247.059 251.857 246.56C249.81 246.221 248.494 245.264 248.346 244.709C248.126 243.673 247.999 242.619 247.965 241.558L236.162 247.959L228.93 250.119C228.662 250.198 228.415 250.34 228.206 250.533C227.998 250.726 227.833 250.966 227.725 251.234C227.576 251.607 227.541 252.019 227.625 252.413C227.71 252.808 227.91 253.165 228.197 253.435C229.511 254.669 232.118 256.782 234.858 257.045C235.586 257.117 236.551 257.143 237.633 257.143C242.154 257.143 248.757 256.654 248.806 256.644L248.812 256.646Z" fill="#090814"/>
<path d="M238.817 30.1948H250.577L251.386 42.8572H238.055L238.817 30.1948Z" fill="#ED9DA0"/>
<path d="M206.847 111.31L204.727 131.493L290.427 130.233L253.053 67.3652L222.538 66.2336L206.847 111.31Z" fill="#2F2E41"/>
<path opacity="0.28" d="M206.847 111.31L204.727 131.493L290.427 130.233L253.053 67.3652L222.538 66.2336L206.847 111.31Z" fill="black"/>
<path d="M222.282 109.487L219.01 129.372V147.146L245.388 155.996C245.388 155.996 242.3 225.035 246.316 240.047L257.823 240.584L257.917 233.114L262.796 177.275L265.669 136.278L261.01 105.195L222.282 109.487Z" fill="#090814"/>
<path d="M243.197 126.623L219.282 147.094C219.282 147.094 217.882 184.027 221.437 188.358C224.49 192.078 264.195 224.166 264.195 224.166C264.195 224.166 271.252 230.739 275.207 230.843C279.161 230.947 283.761 222.525 283.761 222.525L274.602 215.459C274.602 215.459 250.874 192.969 243.83 184.027C240.987 180.417 240.987 180.056 240.987 180.056L241.959 165.049L251.734 137.19L243.197 126.623Z" fill="#090814"/>
<path d="M219.01 39.8594L209.706 38.9609L201.267 40.4302L183.396 40.436L181.874 53.9672L198.182 57.7796L202.156 55.7446L218.722 62.3376L219.01 39.8594Z" fill="#090814"/>
<path d="M230.371 39.471C230.371 39.471 250.507 37.5246 255.086 41.2361C259.665 44.9476 269.478 118.502 269.478 118.502L230.371 120.779H222.819C222.819 120.779 226.169 101.688 227.921 82.6052C229.674 63.5219 230.371 39.471 230.371 39.471Z" fill="#E6E6E6"/>
<path d="M237.102 38.9609L214.927 39.4615L194.253 135.589L210.579 139.286L237.102 38.9609Z" fill="#090814"/>
<path d="M251.239 39.9351L269.793 44.2045L268.798 83.5992L290.427 130.701L265.001 133.442C265.001 133.442 251.005 106.978 247.564 83.6018C244.124 60.2259 251.239 39.9351 251.239 39.9351Z" fill="#090814"/>
<path d="M281.483 134.924C282.082 134.383 282.558 133.713 282.878 132.963C283.198 132.213 283.353 131.399 283.333 130.581C283.313 129.762 283.119 128.958 282.764 128.225C282.408 127.491 281.901 126.847 281.276 126.337L284.713 114.032L277.937 110.065L273.321 127.512C272.551 128.645 272.214 130.028 272.373 131.4C272.532 132.771 273.177 134.035 274.185 134.95C275.193 135.865 276.493 136.368 277.839 136.364C279.185 136.359 280.482 135.847 281.483 134.924V134.924Z" fill="#ED9DA0"/>
<path d="M259.956 44.7503L270.128 43.8311C270.128 43.8311 279.262 53.7825 281.338 61.4877C283.415 69.1929 285.665 93.3035 285.665 93.3035L284.727 128.571L272.836 120.158L272.039 89.8232L259.956 44.7503Z" fill="#090814"/>
<path d="M257.306 27.5375C261.183 20.2721 258.577 11.1627 251.485 7.19113C244.394 3.21953 235.503 5.88969 231.627 13.1551C227.75 20.4205 230.356 29.5299 237.448 33.5015C244.539 37.4731 253.43 34.803 257.306 27.5375Z" fill="#ED9DA0"/>
<path d="M93.3174 159.74H0V99.3506H93.3174V159.74Z" fill="white"/>
<path d="M93.3174 159.74H0V99.3506H93.3174V159.74ZM0.426512 159.3H92.8909V99.7913H0.427281L0.426512 159.3Z" fill="#3F3D56"/>
<path d="M91.5219 255.923H35.2321V192.857H91.5219V255.923Z" fill="white"/>
<path d="M91.5219 255.923H35.2321V192.857H91.5219V255.923ZM35.6825 255.463H91.0717V193.317H35.6825V255.463Z" fill="#3F3D56"/>
<path d="M83.8277 250.115H72.0837V250.529H83.8277V250.115Z" fill="#3F3D56"/>
<path d="M83.8277 251.359H72.0837V252.189H83.8277V251.359Z" fill="#3F3D56"/>
<path d="M83.8277 253.019H72.0837V253.434H83.8277V253.019Z" fill="#3F3D56"/>
<path d="M63.5795 204.06V209.164C66.4629 209.164 69.2815 210.062 71.679 211.744C74.0764 213.427 75.945 215.818 77.0484 218.616C78.1518 221.414 78.4405 224.493 77.8779 227.463C77.3154 230.433 75.9269 233.161 73.8879 235.303L77.3242 238.912C80.0427 236.057 81.8941 232.419 82.6441 228.459C83.3942 224.498 83.0093 220.393 81.5381 216.663C80.0668 212.932 77.5754 209.744 74.3788 207.5C71.1822 205.257 67.424 204.06 63.5795 204.06Z" fill="#E6E6E6"/>
<path d="M77.3483 238.77L73.8566 235.178C71.324 237.784 67.9591 239.357 64.3853 239.606C60.8115 239.856 57.271 238.764 54.4196 236.534L51.4307 240.579C55.2331 243.552 59.954 245.007 64.7192 244.674C69.4843 244.342 73.9708 242.244 77.348 238.77L77.3483 238.77Z" fill="#090814"/>
<path d="M48.6975 224.387C48.6975 220.344 50.2654 216.466 53.0563 213.607C55.8472 210.748 59.6325 209.142 63.5795 209.142V204.06C59.4256 204.059 55.3764 205.395 52.0027 207.877C48.6289 210.36 46.1008 213.865 44.7747 217.898C43.4485 221.93 43.3913 226.288 44.6109 230.356C45.8305 234.423 48.2656 237.997 51.5728 240.571L54.5753 236.524C52.7471 235.104 51.265 233.269 50.2451 231.163C49.2252 229.057 48.6953 226.738 48.6969 224.387H48.6975Z" fill="#7A32CC"/>
<path d="M213.297 167.532H108.553V49.6753H213.297V167.532Z" fill="white"/>
<path d="M213.297 167.532H108.553V49.6753H213.297V167.532ZM109.391 166.672H212.459V50.5354H109.391V166.672Z" fill="#3F3D56"/>
<path d="M142.833 121.753H123.788V152.922H142.833V121.753Z" fill="#090814"/>
<path d="M169.495 100.325H150.451V152.922H169.495V100.325Z" fill="#E6E6E6"/>
<path d="M197.109 75.9741H178.065V152.922H197.109V75.9741Z" fill="#7A32CC"/>
<path d="M203.775 153.896H118.075V63.3118H118.923V153.029H203.775V153.896Z" fill="#3F3D56"/>
<path d="M182.826 52.5972C185.981 52.5972 188.539 49.9807 188.539 46.7531C188.539 43.5255 185.981 40.9089 182.826 40.9089C179.671 40.9089 177.113 43.5255 177.113 46.7531C177.113 49.9807 179.671 52.5972 182.826 52.5972Z" fill="#ED9DA0"/>
<path d="M302.343 257.143H211.854C211.73 257.137 211.613 257.083 211.526 256.992C211.44 256.902 211.392 256.781 211.392 256.656C211.392 256.53 211.44 256.41 211.526 256.319C211.613 256.228 211.73 256.174 211.854 256.169H302.343C302.468 256.174 302.585 256.228 302.671 256.319C302.757 256.41 302.805 256.53 302.805 256.656C302.805 256.781 302.757 256.902 302.671 256.992C302.585 257.083 302.468 257.137 302.343 257.143Z" fill="#CCCCCC"/>
<path d="M80.7253 147.078H12.592C12.5355 147.078 12.4812 147.055 12.4412 147.014C12.4013 146.972 12.3788 146.917 12.3788 146.858V113.207C12.3788 113.178 12.3843 113.149 12.395 113.123C12.4057 113.096 12.4214 113.072 12.4412 113.051C12.461 113.031 12.4845 113.015 12.5104 113.004C12.5363 112.993 12.564 112.987 12.592 112.987C12.62 112.987 12.6478 112.993 12.6736 113.004C12.6995 113.015 12.723 113.031 12.7428 113.051C12.7626 113.072 12.7783 113.096 12.789 113.123C12.7998 113.149 12.8053 113.178 12.8053 113.207V146.638H80.7253C80.7818 146.638 80.8361 146.662 80.8761 146.703C80.916 146.744 80.9385 146.8 80.9385 146.858C80.9385 146.917 80.916 146.972 80.8761 147.014C80.8361 147.055 80.7818 147.078 80.7253 147.078Z" fill="#3F3D56"/>
<path d="M27.0491 144.156H21.5142C21.3643 144.156 21.2206 144.089 21.1146 143.971C21.0087 143.854 20.949 143.694 20.9489 143.527V135.044C20.949 134.877 21.0087 134.718 21.1146 134.6C21.2206 134.482 21.3643 134.416 21.5142 134.416H27.0491C27.1989 134.416 27.3426 134.482 27.4486 134.6C27.5546 134.718 27.6142 134.877 27.6144 135.044V143.527C27.6142 143.694 27.5546 143.853 27.4486 143.971C27.3426 144.089 27.1989 144.155 27.0491 144.156V144.156Z" fill="#7A32CC"/>
<path d="M38.3949 144.155H32.0693C31.898 144.155 31.7338 144.086 31.6127 143.963C31.4916 143.84 31.4234 143.674 31.4232 143.501V126.303C31.4234 126.13 31.4916 125.964 31.6127 125.841C31.7338 125.719 31.898 125.65 32.0693 125.649H38.3949C38.5662 125.65 38.7304 125.719 38.8515 125.841C38.9726 125.964 39.0408 126.13 39.041 126.303V143.502C39.0408 143.675 38.9726 143.842 38.8515 143.964C38.7304 144.087 38.5662 144.156 38.3949 144.156V144.155Z" fill="#7A32CC"/>
<path d="M49.8215 144.156H43.496C43.3247 144.156 43.1604 144.089 43.0393 143.971C42.9182 143.854 42.8501 143.694 42.8499 143.527V135.044C42.8501 134.877 42.9182 134.718 43.0393 134.6C43.1604 134.482 43.3247 134.416 43.496 134.416H49.8215C49.9928 134.416 50.157 134.482 50.2781 134.6C50.3993 134.718 50.4674 134.877 50.4676 135.044V143.527C50.4674 143.694 50.3993 143.853 50.2781 143.971C50.157 144.089 49.9928 144.155 49.8215 144.156V144.156Z" fill="#7A32CC"/>
<path d="M61.2481 144.155H54.9226C54.7552 144.159 54.5931 144.097 54.472 143.982C54.3509 143.867 54.2806 143.708 54.2765 143.542V123.341C54.2806 123.174 54.3509 123.016 54.472 122.901C54.5931 122.786 54.7552 122.724 54.9226 122.727H61.2481C61.4156 122.724 61.5776 122.786 61.6987 122.901C61.8198 123.016 61.8901 123.174 61.8942 123.341V143.542C61.8901 143.709 61.8197 143.867 61.6986 143.982C61.5775 144.097 61.4155 144.159 61.2481 144.156V144.155Z" fill="#7A32CC"/>
<path d="M72.6748 144.156H66.3492C66.1779 144.156 66.0137 144.088 65.8926 143.967C65.7715 143.847 65.7033 143.684 65.7031 143.513V117.526C65.7033 117.355 65.7715 117.192 65.8926 117.071C66.0137 116.951 66.1779 116.883 66.3492 116.883H72.6748C72.8461 116.883 73.0103 116.951 73.1314 117.071C73.2525 117.192 73.3207 117.355 73.3209 117.526V143.513C73.3207 143.684 73.2525 143.847 73.1314 143.967C73.0103 144.088 72.8461 144.156 72.6748 144.156Z" fill="#7A32CC"/>
<path d="M24.2816 131.493C25.0704 131.493 25.7099 131.057 25.7099 130.519C25.7099 129.981 25.0704 129.545 24.2816 129.545C23.4928 129.545 22.8533 129.981 22.8533 130.519C22.8533 131.057 23.4928 131.493 24.2816 131.493Z" fill="#3F3D56"/>
<path d="M35.7082 123.701C36.4971 123.701 37.1366 123.047 37.1366 122.24C37.1366 121.433 36.4971 120.779 35.7082 120.779C34.9194 120.779 34.2799 121.433 34.2799 122.24C34.2799 123.047 34.9194 123.701 35.7082 123.701Z" fill="#3F3D56"/>
<path d="M47.1349 131.493C47.9237 131.493 48.5632 131.057 48.5632 130.519C48.5632 129.981 47.9237 129.545 47.1349 129.545C46.346 129.545 45.7065 129.981 45.7065 130.519C45.7065 131.057 46.346 131.493 47.1349 131.493Z" fill="#3F3D56"/>
<path d="M58.0853 118.831C58.6112 118.831 59.0375 118.395 59.0375 117.857C59.0375 117.319 58.6112 116.883 58.0853 116.883C57.5594 116.883 57.1331 117.319 57.1331 117.857C57.1331 118.395 57.5594 118.831 58.0853 118.831Z" fill="#3F3D56"/>
<path d="M69.0359 113.961C69.8247 113.961 70.4642 113.525 70.4642 112.987C70.4642 112.449 69.8247 112.013 69.0359 112.013C68.247 112.013 67.6075 112.449 67.6075 112.987C67.6075 113.525 68.247 113.961 69.0359 113.961Z" fill="#3F3D56"/>
<path d="M46.7101 130.52L35.3085 121.973L24.0627 130.403L23.8054 130.059L35.3085 121.436L46.6557 129.942L57.9318 117.592L57.9771 117.574L69.3515 112.987L69.5119 113.386L58.1828 117.954L46.7101 130.52Z" fill="#3F3D56"/>
<path d="M231.389 5.60288C231.589 4.5678 232.111 3.63434 232.873 2.95328C233.634 2.27223 234.59 1.88336 235.586 1.84949C237.209 1.8211 239.031 0.693537 240.469 1.49167C243.449 3.12062 251.817 0.893876 252.779 0.976368C253.741 1.05886 254.51 1.72629 255.175 2.40819C256.755 4.0646 257.993 6.05124 258.811 8.24208C258.997 8.90879 259.312 9.52697 259.736 10.0569C260.091 10.3724 260.478 10.645 260.89 10.8695C261.595 11.3658 262.2 12.0069 262.668 12.755C263.137 13.5032 263.459 14.3431 263.617 15.2255C263.923 16.9998 263.751 18.8296 263.121 20.505C262.747 21.6582 262.131 22.706 261.319 23.569C260.705 24.1812 259.969 24.6403 259.325 25.2156C258.274 26.1617 257.473 27.3806 257 28.7533C256.527 30.126 256.398 31.6054 256.625 33.047C254.829 33.4873 253.108 31.7801 252.575 29.9117C252.043 28.0433 252.349 26.0389 252.376 24.0886C252.376 23.2224 252.262 22.1987 251.543 21.7852C250.946 21.4274 250.193 21.685 249.606 22.0359C249.052 22.4577 248.425 22.7593 247.761 22.9235C246.75 23.0451 245.824 22.2936 245.257 21.4022C244.689 20.5109 244.366 19.4765 243.826 18.5675C243.058 17.4092 242.118 16.3913 241.042 15.5539C239.864 14.5265 238.718 13.3812 237.468 12.4577C236.716 11.9028 235.818 11.6451 235.079 11.087C232.846 9.38625 231.389 8.30529 231.389 5.60288Z" fill="#090814"/>
</svg>
