<svg width="305" height="289" viewBox="0 0 305 289" fill="none" xmlns="http://www.w3.org/2000/svg">
<path d="M283.622 283.341L267.473 257.95L283.629 286.107L283.638 289C284.79 288.987 285.931 288.943 287.059 288.869L285.742 251.703L285.76 251.416L285.73 251.361L285.605 247.849L302.49 220.02L285.587 245.219L285.537 245.963L284.542 217.882L299.057 189.09L284.428 212.948L283.748 154.746L283.744 154.552L283.742 154.743L283.411 200.632L269.54 182.271L283.423 204.584L283.487 229.717L270.617 205.443L283.495 233.413L283.53 247.388L264.835 213.59L283.545 252.263L283.622 283.341Z" fill="#E2E2E2"/>
<path d="M24.4226 280.941L3.42895 247.6L24.4323 284.573L24.4436 288.372C25.9413 288.354 27.4239 288.297 28.8913 288.199L27.179 239.398L27.2016 239.02L27.163 238.948L26.9999 234.337L48.9506 197.796L26.9773 230.884L26.9115 231.86L25.618 194.989L44.4887 157.182L25.4705 188.51L24.5859 112.085L24.5819 111.831L24.5788 112.081L24.148 172.337L6.11619 148.227L24.164 177.527L24.2477 210.529L7.51678 178.655L24.2569 215.381L24.3033 233.732L0 189.352L24.3224 240.134L24.4226 280.941Z" fill="#E2E2E2"/>
<path d="M121.121 154.041V232.514H151.604V152.951L144.528 153.204V137.147H139.395L138.55 101.585C140.621 100.234 142.078 97.0251 142.078 93.2783C142.081 92.2026 141.956 91.1305 141.706 90.0842C142.686 89.0224 143.287 87.6652 143.414 86.225C143.541 84.7849 143.188 83.3431 142.409 82.1256C143.06 82.6954 143.818 83.13 144.638 83.4042C145.459 83.6784 146.326 83.7867 147.188 83.7228C148.051 83.659 148.892 83.4243 149.663 83.0322C150.435 82.6402 151.12 82.0988 151.681 81.4393C152.241 80.7798 152.666 80.0154 152.929 79.1905C153.192 78.3656 153.288 77.4966 153.213 76.634C153.138 75.7713 152.892 74.9322 152.491 74.1654C152.089 73.3985 151.539 72.7192 150.873 72.1668C151.993 71.753 152.978 71.0399 153.722 70.1049C154.466 69.1699 154.939 68.0488 155.091 66.8633C155.243 65.6779 155.067 64.4734 154.584 63.3808C154.1 62.2882 153.326 61.3492 152.347 60.6658C151.367 59.9824 150.219 59.5808 149.028 59.5045C147.837 59.4283 146.647 59.6804 145.589 60.2333C144.53 60.7863 143.644 61.619 143.025 62.6411C142.406 63.6631 142.079 64.8354 142.078 66.0306C142.078 66.1264 142.081 66.2214 142.085 66.316C141.189 66.0418 140.243 65.9639 139.314 66.0878C138.384 66.2116 137.492 66.5343 136.698 67.0339C135.904 67.5335 135.226 68.1983 134.712 68.9831C134.197 69.7679 133.857 70.6544 133.715 71.5825C132.9 71.0972 131.99 70.7953 131.047 70.6977C130.104 70.6 129.151 70.709 128.255 71.0169C127.358 71.3249 126.539 71.8245 125.855 72.4811C125.171 73.1377 124.637 73.9356 124.292 74.8193C123.946 75.703 123.797 76.6513 123.854 77.5985C123.912 78.5458 124.174 79.4691 124.624 80.3045C125.074 81.1399 125.7 81.8673 126.458 82.4363C127.217 83.0052 128.09 83.4021 129.017 83.5993C129.016 83.6468 129.014 83.6939 129.014 83.7416C129.62 85.5745 130.393 87.3482 131.321 89.0407C130.867 90.4071 130.639 91.8384 130.647 93.2783C130.647 97.0251 132.104 100.234 134.176 101.585L133.33 137.147H128.197V153.788L121.121 154.041ZM140.156 79.1091L140.173 79.1095C140.267 79.1095 140.361 79.1064 140.454 79.1024C140.513 79.2957 140.58 79.4849 140.656 79.6701C140.5 79.4737 140.333 79.2864 140.156 79.1091Z" fill="#E2E2E2"/>
<path d="M104.336 288.372H196.877V181.198H104.336L104.336 288.372Z" fill="#3F3D56"/>
<path d="M138.132 288.372H163.081V266.574H138.132V288.372Z" fill="#E2E2E2"/>
<path d="M73.4953 40.1802C73.4936 40.2594 73.4894 40.3379 73.4894 40.4174C73.4879 41.8749 73.7793 43.3179 74.3464 44.6603C74.9136 46.0027 75.7447 47.2172 76.7903 48.2314C76.9536 48.5801 77.1353 48.9199 77.3346 49.2493C76.578 51.5264 76.1985 53.9121 76.2112 56.3119C76.2112 64.5885 80.4761 71.2981 85.7374 71.2981C90.9987 71.2981 95.2637 64.5885 95.2637 56.3119C95.2676 54.519 95.0592 52.7321 94.6428 50.9883C96.2764 49.2187 97.2775 46.9566 97.4895 44.5564C97.7015 42.1561 97.1123 39.7533 95.8143 37.7241C96.8998 38.6737 98.163 39.3979 99.5304 39.8548C100.898 40.3117 102.342 40.4922 103.78 40.3857C105.217 40.2792 106.62 39.888 107.905 39.2346C109.19 38.5813 110.333 37.6789 111.267 36.5798C112.202 35.4806 112.908 34.2067 113.347 32.8319C113.785 31.4572 113.946 30.0089 113.821 28.5712C113.696 27.1335 113.287 25.7351 112.617 24.457C111.948 23.1789 111.031 22.0467 109.921 21.126C111.788 20.4364 113.43 19.2479 114.67 17.6895C115.909 16.1312 116.698 14.2626 116.951 12.2869C117.205 10.3111 116.912 8.30367 116.106 6.48263C115.299 4.66159 114.01 3.09658 112.377 1.95761C110.745 0.818641 108.832 0.14927 106.846 0.0222032C104.861 -0.104863 102.878 0.315236 101.114 1.23687C99.3501 2.1585 97.8721 3.54642 96.8407 5.24986C95.8092 6.9533 95.2638 8.90712 95.2637 10.8991C95.2637 11.0587 95.269 11.217 95.2756 11.3748C93.7808 10.9177 92.2051 10.788 90.6557 10.9944C89.1063 11.2008 87.6195 11.7386 86.2961 12.5712C84.9727 13.4039 83.8438 14.5118 82.986 15.8199C82.1282 17.128 81.5616 18.6055 81.3247 20.1522C79.9669 19.3435 78.4497 18.8403 76.8782 18.6775C75.3067 18.5147 73.7187 18.6963 72.2244 19.2096C70.73 19.7228 69.3651 20.5556 68.2245 21.6499C67.0839 22.7442 66.1949 24.074 65.6191 25.5468C65.0434 27.0197 64.7947 28.6003 64.8903 30.179C64.986 31.7577 65.4238 33.2966 66.1732 34.6889C66.9226 36.0813 67.9657 37.2937 69.2301 38.2419C70.4945 39.1902 71.9499 39.8516 73.4953 40.1802ZM92.0882 32.6972C92.2452 32.6972 92.4012 32.692 92.5567 32.6854C92.6544 33.0075 92.7664 33.3229 92.8929 33.6315C92.6334 33.3041 92.3553 32.992 92.0601 32.6965L92.0882 32.6972Z" fill="#E2E2E2"/>
<path d="M80.2922 145.775H91.1807L90.7918 129.428V129.422L89.3669 69.4795C88.2738 70.1482 87.0175 70.502 85.7365 70.502C84.4554 70.502 83.1992 70.1482 82.106 69.4795L80.6814 129.422V129.428L80.2922 145.775Z" fill="#124685"/>
<path d="M60.3354 157.58V288.371H111.138V155.765L99.3453 156.186V129.428H72.1276V157.159L60.3354 157.58Z" fill="#124685"/>
<path d="M203.234 40.1802C203.232 40.2594 203.228 40.3379 203.228 40.4174C203.226 41.8749 203.518 43.3179 204.085 44.6603C204.652 46.0027 205.483 47.2172 206.529 48.2314C206.692 48.5801 206.874 48.9199 207.073 49.2493C206.316 51.5264 205.937 53.9121 205.95 56.3119C205.95 64.5885 210.215 71.2981 215.476 71.2981C220.737 71.2981 225.002 64.5885 225.002 56.3119C225.006 54.519 224.798 52.7321 224.381 50.9883C226.015 49.2187 227.016 46.9566 227.228 44.5564C227.44 42.1561 226.851 39.7533 225.553 37.7241C226.638 38.6737 227.901 39.398 229.269 39.8549C230.636 40.3118 232.081 40.4923 233.518 40.3858C234.956 40.2794 236.358 39.8881 237.644 39.2348C238.929 38.5814 240.072 37.679 241.006 36.5799C241.94 35.4807 242.647 34.2068 243.085 32.832C243.524 31.4572 243.685 30.0089 243.56 28.5712C243.435 27.1336 243.025 25.7351 242.356 24.457C241.686 23.1789 240.77 22.0467 239.66 21.126C241.527 20.4364 243.169 19.2479 244.408 17.6895C245.648 16.1312 246.437 14.2627 246.69 12.2869C246.943 10.3111 246.651 8.30367 245.844 6.48263C245.038 4.66159 243.748 3.09658 242.116 1.95761C240.484 0.81864 238.571 0.14927 236.585 0.0222032C234.599 -0.104864 232.617 0.315236 230.853 1.23687C229.089 2.1585 227.611 3.54642 226.579 5.24986C225.548 6.9533 225.002 8.90712 225.002 10.8991C225.002 11.0587 225.007 11.217 225.014 11.3748C223.519 10.9177 221.944 10.788 220.394 10.9944C218.845 11.2008 217.358 11.7386 216.035 12.5712C214.711 13.4039 213.582 14.5118 212.725 15.8199C211.867 17.128 211.3 18.6055 211.063 20.1522C209.705 19.3435 208.188 18.8403 206.617 18.6775C205.045 18.5147 203.457 18.6963 201.963 19.2096C200.469 19.7228 199.104 20.5556 197.963 21.6499C196.822 22.7442 195.933 24.074 195.358 25.5468C194.782 27.0197 194.533 28.6003 194.629 30.179C194.725 31.7577 195.162 33.2966 195.912 34.6889C196.661 36.0813 197.704 37.2937 198.969 38.2419C200.233 39.1902 201.688 39.8516 203.234 40.1802ZM221.827 32.6972C221.984 32.6972 222.14 32.6919 222.295 32.6853C222.393 33.0075 222.505 33.3229 222.631 33.6315C222.372 33.3041 222.094 32.992 221.799 32.6965L221.827 32.6972Z" fill="#E2E2E2"/>
<path d="M210.032 145.775H220.919L219.105 69.4819C216.759 70.3258 214.193 70.3258 211.847 69.4819L210.032 145.775Z" fill="#124685"/>
<path d="M190.073 157.58V288.371H240.881V155.765L236.708 155.915L229.083 156.186V129.428H201.865V157.159L190.073 157.58Z" fill="#124685"/>
<path d="M164.413 206.698H176.965V194.133H164.413V206.698Z" fill="white"/>
<path d="M144.331 206.698H156.882V194.133H144.331V206.698Z" fill="white"/>
<path d="M124.249 206.698H136.8V194.133H124.249V206.698Z" fill="white"/>
<path d="M164.413 226.802H176.965V214.237H164.413V226.802Z" fill="white"/>
<path d="M144.331 226.802H156.882V214.237H144.331V226.802Z" fill="white"/>
<path d="M124.249 226.802H136.8V214.237H124.249V226.802Z" fill="white"/>
<path d="M164.413 246.907H176.965V234.342H164.413V246.907Z" fill="white"/>
<path d="M144.331 246.907H156.882V234.342H144.331V246.907Z" fill="white"/>
<path d="M124.249 246.907H136.8V234.342H124.249V246.907Z" fill="white"/>
<path d="M79.4616 201.672H92.0131V189.107H79.4616V201.672Z" fill="white"/>
<path d="M79.4616 221.776H92.0131V209.211H79.4616V221.776Z" fill="white"/>
<path d="M79.4616 241.88H92.0131V229.315H79.4616V241.88Z" fill="white"/>
<path d="M79.4616 261.984H92.0131V249.419H79.4616V261.984Z" fill="white"/>
<path d="M209.095 201.672H221.647V189.107H209.095V201.672Z" fill="white"/>
<path d="M209.095 221.776H221.647V209.211H209.095V221.776Z" fill="white"/>
<path d="M209.095 241.88H221.647V229.315H209.095V241.88Z" fill="white"/>
<path d="M209.095 261.984H221.647V249.419H209.095V261.984Z" fill="white"/>
<path d="M305 288.372H0V289H305V288.372Z" fill="#3F3D56"/>
</svg>
